<!-- Generator: Adobe Illustrator 19.0.0, SVG Export Plug-In  -->
<svg version="1.1"
	 xmlns="http://www.w3.org/2000/svg" xmlns:xlink="http://www.w3.org/1999/xlink" xmlns:a="http://ns.adobe.com/AdobeSVGViewerExtensions/3.0/"
	 x="0px" y="0px" width="161.251px" height="43.97px" viewBox="0 0 161.251 43.97"
	 style="enable-background:new 0 0 161.251 43.97;" xml:space="preserve">
<style type="text/css">
	.st0{fill:#004587;}
	.st1{fill:#E63029;}
</style>
<defs>
</defs>
<g>
	<g>
		<path class="st0" d="M27.183,14.654H4.901c0,0,0.674,2.153,1.452,3.258h19.823c0,0,3.784,2.963,5.594,8.147H10.935
			c-3.596-2.931-6.288-6.895-7.702-11.405c0.18-0.554,0.378-1.095,0.596-1.629h23.346c1.819-1.264,3.627-3.255,3.627-3.255H5.462
			C5.798,9.21,6.155,8.67,6.536,8.142h25.592c0.675-0.817,2.032-3.256,2.032-3.256H9.356c0.597-0.576,1.224-1.119,1.875-1.628h23.69
			C35.57,1.703,36.034,0,36.034,0H10.301C5.385,3.5,1.676,8.629,0,14.654c1.662,5.957,5.335,11.125,10.289,14.659h25.677
			C35.966,29.313,35.514,21.517,27.183,14.654 M103.461,31.306c0.929,0,1.808,0.227,2.349,0.611
			c0.861,0.601,1.278,1.532,1.278,2.853c0,1.386-0.408,2.056-0.715,2.442c-0.585,0.734-1.471,1.092-2.707,1.092h-3.513v-6.998
			H103.461z M93.565,14.658V43.97h10.957c2.482,0,4.813-0.625,6.389-1.716c1.619-1.104,3.552-3.306,3.552-7.484
			c0-3.923-1.874-6.028-2.989-6.937c-1.191-0.961-3.406-2.108-7.192-2.108h-4.128v-5.434h11.089l1.939-5.634H93.565z M68.013,14.658
			v5.616c0,0,7.389,0.017,8.208,0.017V43.97h6.601V20.284c0.804-0.001,7.19,0,7.19,0l1.901-5.626H68.013z M56.993,31.626
			c0.854,0,1.737,0.088,2.407,0.728c0.559,0.526,0.917,1.519,0.917,2.529c0,0.846-0.252,1.688-0.69,2.31
			c-0.725,0.999-1.516,1.194-2.634,1.194h-3.566v-6.761H56.993z M56.181,20.428c0.493,0,1.413,0,2.18,0.327
			c0.83,0.357,1.346,1.287,1.346,2.438c0,0.782-0.265,1.558-0.69,2.017c-0.661,0.733-1.435,0.792-2.306,0.792h-3.362v-5.573H56.181z
			 M46.812,14.658V43.97h11.81c5.495,0,9.045-3.295,9.045-8.391c0-2.549-0.816-4.371-2.645-5.913
			c-0.668-0.566-1.413-0.959-2.187-1.275c0.597-0.294,1.166-0.64,1.668-1.094c1.352-1.26,2.063-3.014,2.063-5.085
			c0-2.137-0.796-3.906-2.426-5.406c-1.988-1.789-4.271-2.148-7.308-2.148H46.812z"/>
		<path class="st1" d="M149.002,14.658c-0.126,0.196-11.701,18.343-11.771,18.45v5.146h13.055v5.716h5.466v-5.716h3.599l1.901-5.638
			h-5.5v-5.773h-5.466v5.773h-6.449c0.468-0.793,9.829-15.52,11.39-17.958H149.002z M119.139,16.059
			c-0.001,0.245-0.005,5.658-0.005,6.276c0.327-0.157,0.809-0.391,0.809-0.391c0.584-0.349,3.718-2.146,6.547-2.291
			c1.169-0.065,2.216,0.285,2.948,0.983c0.599,0.566,0.928,1.325,0.928,2.138c0,2.692-1.865,4.05-4.119,5.425
			c-5.532,3.317-8.963,6.776-8.963,13.756c0,0,0.007,1.657,0.008,2.015c0.426,0,17.978-0.003,18.401-0.003v-5.662h-11.398
			c0.583-2.334,2.015-3.747,4.007-5.013c0.005-0.001,2.862-1.767,2.862-1.767c3.366-2.058,5.499-5.471,5.566-8.902
			c0-2.23-0.616-4.323-2.21-5.947c-1.688-1.725-4.155-2.638-7.134-2.638C124.589,14.037,121.619,14.776,119.139,16.059"/>
	</g>
</g>
</svg>